<mxfile host="app.diagrams.net" agent="Mozilla/5.0 (Windows NT 10.0; Win64; x64) AppleWebKit/537.36 (KHTML, like Gecko) Chrome/138.0.0.0 Safari/537.36" version="28.2.3">
  <diagram name="PÃ¡gina-1" id="ty4T6BETJSiOEMqTfMGO">
    <mxGraphModel dx="1426" dy="785" grid="1" gridSize="10" guides="1" tooltips="1" connect="1" arrows="1" fold="1" page="1" pageScale="1" pageWidth="827" pageHeight="1169" math="0" shadow="0">
      <root>
        <mxCell id="0" />
        <mxCell id="1" parent="0" />
        <mxCell id="_sikG3KofwuxZ6Tgt3e6-1" value="Carro" style="rounded=0;whiteSpace=wrap;html=1;" parent="1" vertex="1">
          <mxGeometry x="300" y="370" width="120" height="60" as="geometry" />
        </mxCell>
        <mxCell id="_sikG3KofwuxZ6Tgt3e6-2" value="" style="endArrow=none;html=1;rounded=0;" parent="1" edge="1">
          <mxGeometry width="50" height="50" relative="1" as="geometry">
            <mxPoint x="320" y="370" as="sourcePoint" />
            <mxPoint x="230" y="330" as="targetPoint" />
            <Array as="points" />
          </mxGeometry>
        </mxCell>
        <mxCell id="_sikG3KofwuxZ6Tgt3e6-3" value="NumChaci" style="ellipse;whiteSpace=wrap;html=1;" parent="1" vertex="1">
          <mxGeometry x="160" y="280" width="100" height="60" as="geometry" />
        </mxCell>
        <mxCell id="_sikG3KofwuxZ6Tgt3e6-4" value="" style="endArrow=none;html=1;rounded=0;" parent="1" edge="1">
          <mxGeometry width="50" height="50" relative="1" as="geometry">
            <mxPoint x="175" y="319" as="sourcePoint" />
            <mxPoint x="255" y="319" as="targetPoint" />
          </mxGeometry>
        </mxCell>
        <mxCell id="_sikG3KofwuxZ6Tgt3e6-8" value="" style="endArrow=none;html=1;rounded=0;" parent="1" edge="1">
          <mxGeometry width="50" height="50" relative="1" as="geometry">
            <mxPoint x="400" y="370" as="sourcePoint" />
            <mxPoint x="390" y="310" as="targetPoint" />
          </mxGeometry>
        </mxCell>
        <mxCell id="_sikG3KofwuxZ6Tgt3e6-11" value="" style="endArrow=none;html=1;rounded=0;" parent="1" edge="1">
          <mxGeometry width="50" height="50" relative="1" as="geometry">
            <mxPoint x="390" y="260" as="sourcePoint" />
            <mxPoint x="400" y="190" as="targetPoint" />
          </mxGeometry>
        </mxCell>
        <mxCell id="_sikG3KofwuxZ6Tgt3e6-12" value="" style="endArrow=none;html=1;rounded=0;" parent="1" edge="1">
          <mxGeometry width="50" height="50" relative="1" as="geometry">
            <mxPoint x="354.8411514889656" y="279.9977482154906" as="sourcePoint" />
            <mxPoint x="310" y="217.91" as="targetPoint" />
          </mxGeometry>
        </mxCell>
        <mxCell id="_sikG3KofwuxZ6Tgt3e6-13" value="Cv" style="ellipse;whiteSpace=wrap;html=1;" parent="1" vertex="1">
          <mxGeometry x="250" y="160" width="106" height="60" as="geometry" />
        </mxCell>
        <mxCell id="_sikG3KofwuxZ6Tgt3e6-15" value="Clindrada" style="ellipse;whiteSpace=wrap;html=1;" parent="1" vertex="1">
          <mxGeometry x="380" y="140" width="100" height="60" as="geometry" />
        </mxCell>
        <mxCell id="_sikG3KofwuxZ6Tgt3e6-16" value="" style="endArrow=none;html=1;rounded=0;" parent="1" edge="1">
          <mxGeometry width="50" height="50" relative="1" as="geometry">
            <mxPoint x="410" y="290" as="sourcePoint" />
            <mxPoint x="480" y="240" as="targetPoint" />
          </mxGeometry>
        </mxCell>
        <mxCell id="_sikG3KofwuxZ6Tgt3e6-17" value="Binario" style="ellipse;whiteSpace=wrap;html=1;" parent="1" vertex="1">
          <mxGeometry x="430" y="200" width="100" height="60" as="geometry" />
        </mxCell>
        <mxCell id="_sikG3KofwuxZ6Tgt3e6-19" value="" style="endArrow=none;html=1;rounded=0;" parent="1" edge="1">
          <mxGeometry width="50" height="50" relative="1" as="geometry">
            <mxPoint x="280" y="450" as="sourcePoint" />
            <mxPoint x="310" y="430" as="targetPoint" />
          </mxGeometry>
        </mxCell>
        <mxCell id="_sikG3KofwuxZ6Tgt3e6-20" value="Marca" style="ellipse;whiteSpace=wrap;html=1;" parent="1" vertex="1">
          <mxGeometry x="200" y="440" width="100" height="60" as="geometry" />
        </mxCell>
        <mxCell id="_sikG3KofwuxZ6Tgt3e6-21" value="" style="endArrow=none;html=1;rounded=0;entryX=-0.009;entryY=0.633;entryDx=0;entryDy=0;entryPerimeter=0;" parent="1" source="_sikG3KofwuxZ6Tgt3e6-1" edge="1">
          <mxGeometry width="50" height="50" relative="1" as="geometry">
            <mxPoint x="420" y="450" as="sourcePoint" />
            <mxPoint x="489.0999999999999" y="377.98" as="targetPoint" />
          </mxGeometry>
        </mxCell>
        <mxCell id="_sikG3KofwuxZ6Tgt3e6-23" value="" style="endArrow=none;html=1;rounded=0;" parent="1" source="_sikG3KofwuxZ6Tgt3e6-28" edge="1">
          <mxGeometry width="50" height="50" relative="1" as="geometry">
            <mxPoint x="590" y="370" as="sourcePoint" />
            <mxPoint x="670.7106781186548" y="370" as="targetPoint" />
          </mxGeometry>
        </mxCell>
        <mxCell id="_sikG3KofwuxZ6Tgt3e6-24" value="" style="endArrow=none;html=1;rounded=0;entryX=0.02;entryY=0.75;entryDx=0;entryDy=0;entryPerimeter=0;exitX=0.73;exitY=0;exitDx=0;exitDy=0;exitPerimeter=0;" parent="1" edge="1" target="_sikG3KofwuxZ6Tgt3e6-27" source="PARrDj9q2Z82idLVjuQR-23">
          <mxGeometry width="50" height="50" relative="1" as="geometry">
            <mxPoint x="580" y="350" as="sourcePoint" />
            <mxPoint x="600" y="340" as="targetPoint" />
          </mxGeometry>
        </mxCell>
        <mxCell id="_sikG3KofwuxZ6Tgt3e6-25" value="" style="endArrow=none;html=1;rounded=0;" parent="1" edge="1">
          <mxGeometry width="50" height="50" relative="1" as="geometry">
            <mxPoint x="630" y="420" as="sourcePoint" />
            <mxPoint x="590" y="380" as="targetPoint" />
          </mxGeometry>
        </mxCell>
        <mxCell id="_sikG3KofwuxZ6Tgt3e6-26" value="" style="endArrow=none;html=1;rounded=0;exitX=0.5;exitY=0;exitDx=0;exitDy=0;" parent="1" edge="1" source="_sikG3KofwuxZ6Tgt3e6-29">
          <mxGeometry width="50" height="50" relative="1" as="geometry">
            <mxPoint x="530" y="430" as="sourcePoint" />
            <mxPoint x="560" y="400" as="targetPoint" />
          </mxGeometry>
        </mxCell>
        <mxCell id="_sikG3KofwuxZ6Tgt3e6-27" value="Data" style="ellipse;whiteSpace=wrap;html=1;" parent="1" vertex="1">
          <mxGeometry x="590" y="290" width="100" height="60" as="geometry" />
        </mxCell>
        <mxCell id="_sikG3KofwuxZ6Tgt3e6-29" value="Preco?" style="ellipse;whiteSpace=wrap;html=1;" parent="1" vertex="1">
          <mxGeometry x="490" y="430" width="100" height="60" as="geometry" />
        </mxCell>
        <mxCell id="_sikG3KofwuxZ6Tgt3e6-30" value="Obs" style="ellipse;whiteSpace=wrap;html=1;" parent="1" vertex="1">
          <mxGeometry x="600" y="410" width="100" height="60" as="geometry" />
        </mxCell>
        <mxCell id="_sikG3KofwuxZ6Tgt3e6-31" value="" style="endArrow=none;html=1;rounded=0;exitX=0.5;exitY=0;exitDx=0;exitDy=0;" parent="1" edge="1" source="PARrDj9q2Z82idLVjuQR-2">
          <mxGeometry width="50" height="50" relative="1" as="geometry">
            <mxPoint x="400" y="470" as="sourcePoint" />
            <mxPoint x="385" y="430" as="targetPoint" />
          </mxGeometry>
        </mxCell>
        <mxCell id="PARrDj9q2Z82idLVjuQR-2" value="Modelo" style="ellipse;whiteSpace=wrap;html=1;" vertex="1" parent="1">
          <mxGeometry x="320" y="470" width="100" height="60" as="geometry" />
        </mxCell>
        <mxCell id="PARrDj9q2Z82idLVjuQR-4" value="Motor" style="ellipse;whiteSpace=wrap;html=1;" vertex="1" parent="1">
          <mxGeometry x="340" y="260" width="100" height="60" as="geometry" />
        </mxCell>
        <mxCell id="PARrDj9q2Z82idLVjuQR-6" value="Versao" style="ellipse;whiteSpace=wrap;html=1;" vertex="1" parent="1">
          <mxGeometry x="120" y="370" width="100" height="60" as="geometry" />
        </mxCell>
        <mxCell id="PARrDj9q2Z82idLVjuQR-7" value="" style="endArrow=none;html=1;rounded=0;" edge="1" parent="1" source="_sikG3KofwuxZ6Tgt3e6-1">
          <mxGeometry width="50" height="50" relative="1" as="geometry">
            <mxPoint x="229.28932188134524" y="450" as="sourcePoint" />
            <mxPoint x="229.28932188134524" y="400" as="targetPoint" />
          </mxGeometry>
        </mxCell>
        <mxCell id="PARrDj9q2Z82idLVjuQR-8" value="" style="endArrow=none;html=1;rounded=0;entryX=1;entryY=1;entryDx=0;entryDy=0;" edge="1" parent="1" target="_sikG3KofwuxZ6Tgt3e6-1">
          <mxGeometry width="50" height="50" relative="1" as="geometry">
            <mxPoint x="460" y="500" as="sourcePoint" />
            <mxPoint x="460" y="440" as="targetPoint" />
          </mxGeometry>
        </mxCell>
        <mxCell id="PARrDj9q2Z82idLVjuQR-9" value="Combustivel" style="ellipse;whiteSpace=wrap;html=1;" vertex="1" parent="1">
          <mxGeometry x="430" y="490" width="100" height="60" as="geometry" />
        </mxCell>
        <mxCell id="PARrDj9q2Z82idLVjuQR-10" value="" style="endArrow=none;dashed=1;html=1;rounded=0;" edge="1" parent="1">
          <mxGeometry width="50" height="50" relative="1" as="geometry">
            <mxPoint x="420" y="425" as="sourcePoint" />
            <mxPoint x="570" y="540" as="targetPoint" />
          </mxGeometry>
        </mxCell>
        <mxCell id="PARrDj9q2Z82idLVjuQR-11" value="Eletrico" style="ellipse;whiteSpace=wrap;html=1;dashed=1;dashPattern=8 8;" vertex="1" parent="1">
          <mxGeometry x="540" y="540" width="100" height="60" as="geometry" />
        </mxCell>
        <mxCell id="PARrDj9q2Z82idLVjuQR-13" value="" style="endArrow=none;html=1;rounded=0;exitX=1;exitY=0.617;exitDx=0;exitDy=0;exitPerimeter=0;" edge="1" parent="1">
          <mxGeometry width="50" height="50" relative="1" as="geometry">
            <mxPoint x="340" y="287.02" as="sourcePoint" />
            <mxPoint x="280" y="270" as="targetPoint" />
          </mxGeometry>
        </mxCell>
        <mxCell id="PARrDj9q2Z82idLVjuQR-14" value="Turbo?" style="ellipse;whiteSpace=wrap;html=1;" vertex="1" parent="1">
          <mxGeometry x="210" y="220" width="100" height="60" as="geometry" />
        </mxCell>
        <mxCell id="PARrDj9q2Z82idLVjuQR-15" value="" style="endArrow=none;html=1;rounded=0;" edge="1" parent="1">
          <mxGeometry width="50" height="50" relative="1" as="geometry">
            <mxPoint x="420" y="370" as="sourcePoint" />
            <mxPoint x="480" y="320" as="targetPoint" />
          </mxGeometry>
        </mxCell>
        <mxCell id="PARrDj9q2Z82idLVjuQR-16" value="Dono" style="ellipse;shape=doubleEllipse;margin=3;whiteSpace=wrap;html=1;align=center;" vertex="1" parent="1">
          <mxGeometry x="450" y="290" width="100" height="40" as="geometry" />
        </mxCell>
        <mxCell id="PARrDj9q2Z82idLVjuQR-18" value="" style="endArrow=none;html=1;rounded=0;" edge="1" parent="1">
          <mxGeometry width="50" height="50" relative="1" as="geometry">
            <mxPoint x="520" y="290" as="sourcePoint" />
            <mxPoint x="560" y="230" as="targetPoint" />
          </mxGeometry>
        </mxCell>
        <mxCell id="PARrDj9q2Z82idLVjuQR-19" value="" style="endArrow=none;html=1;rounded=0;" edge="1" parent="1">
          <mxGeometry width="50" height="50" relative="1" as="geometry">
            <mxPoint x="550" y="310" as="sourcePoint" />
            <mxPoint x="600" y="260" as="targetPoint" />
          </mxGeometry>
        </mxCell>
        <mxCell id="PARrDj9q2Z82idLVjuQR-20" value="Nome" style="ellipse;whiteSpace=wrap;html=1;" vertex="1" parent="1">
          <mxGeometry x="520" y="170" width="100" height="60" as="geometry" />
        </mxCell>
        <mxCell id="PARrDj9q2Z82idLVjuQR-21" value="Nif" style="ellipse;whiteSpace=wrap;html=1;" vertex="1" parent="1">
          <mxGeometry x="590" y="220" width="100" height="60" as="geometry" />
        </mxCell>
        <mxCell id="PARrDj9q2Z82idLVjuQR-23" value="Custom" style="ellipse;shape=doubleEllipse;margin=3;whiteSpace=wrap;html=1;align=center;" vertex="1" parent="1">
          <mxGeometry x="490" y="360" width="100" height="40" as="geometry" />
        </mxCell>
        <mxCell id="PARrDj9q2Z82idLVjuQR-24" value="" style="endArrow=none;html=1;rounded=0;" edge="1" parent="1" target="_sikG3KofwuxZ6Tgt3e6-28">
          <mxGeometry width="50" height="50" relative="1" as="geometry">
            <mxPoint x="590" y="370" as="sourcePoint" />
            <mxPoint x="670.7106781186548" y="370" as="targetPoint" />
          </mxGeometry>
        </mxCell>
        <mxCell id="_sikG3KofwuxZ6Tgt3e6-28" value="Tipo" style="ellipse;whiteSpace=wrap;html=1;" parent="1" vertex="1">
          <mxGeometry x="640" y="350" width="100" height="60" as="geometry" />
        </mxCell>
      </root>
    </mxGraphModel>
  </diagram>
</mxfile>
